<svg xmlns="http://www.w3.org/2000/svg" width="960" height="540" fill="none"><path fill="#fff" d="M0 0h960v540H0z"/><g clip-path="url(#a)"><path fill="#000" d="M688.562 248.743h-17.478v61.43h17.478v-61.43zm0-20.246h-17.478v13.583h17.478v-13.583zm-381.172 0h-18.269v81.676h55.785v-15.659H307.39v-66.017zm73.618 15.135c-19.445 0-34.837 15.006-34.837 33.918 0 18.911 15.392 33.957 34.837 33.957 19.445 0 34.966-15.006 34.966-33.928 0-18.921-15.402-33.947-34.966-33.947zm0 51.663c-9.787 0-17.093-7.434-17.093-17.795 0-10.36 7.306-17.735 17.093-17.735 9.787 0 17.092 7.563 17.092 17.735 0 10.173-7.305 17.795-17.092 17.795zm108.268 1.048c-3.134 0-5.872-1.829-5.872-7.434V262.82h16.667v-14.077h-16.667v-17.705h-17.478v17.705h-22.954v-17.705h-17.479v17.705h-9.519v14.077h9.519v26.346c0 14.739 7.049 22.312 20.088 22.312a30.053 30.053 0 0 0 16.569-4.943l-4.943-12.911a16.041 16.041 0 0 1-8.354 2.739c-3.134 0-5.872-1.829-5.872-7.435V262.82h22.955v26.346c0 14.739 7.038 22.312 20.088 22.312a30.071 30.071 0 0 0 16.568-4.943l-4.943-12.911a15.988 15.988 0 0 1-8.373 2.719zm110.502-23.39c-2.669-18.338-18.654-31.308-36.221-28.748a33.496 33.496 0 0 0-28.55 38.426c3.095 21.304 21.413 31.17 40.255 28.422a43.959 43.959 0 0 0 22.984-10.588l-8.264-11.458a32.398 32.398 0 0 1-16.687 7.573c-8.522 1.236-16.5-1.977-19.861-10.558l46.859-6.821a56.566 56.566 0 0 0-.515-6.248zm-48.282 1.611c.495-8.373 6.169-14.739 13.653-15.817a15.817 15.817 0 0 1 17.626 11.24l-31.279 4.577zm238.018-1.611c-2.669-18.338-18.664-31.308-36.221-28.748a33.487 33.487 0 0 0-28.55 38.426c3.094 21.304 21.403 31.17 40.255 28.422a43.92 43.92 0 0 0 22.974-10.588l-8.254-11.458a32.425 32.425 0 0 1-16.697 7.573c-8.522 1.236-16.499-1.977-19.861-10.558l46.868-6.821a59.391 59.391 0 0 0-.514-6.248zm-48.281 1.611c.494-8.373 6.158-14.739 13.652-15.817a15.758 15.758 0 0 1 17.586 11.24l-31.238 4.577zm-23.973-46.067h-17.478v81.666h17.478v-81.666zm108.446 40.838c-6-1.305-11.477-2.482-11.477-6.13 0-2.738 3.786-4.567 7.829-4.567a40.856 40.856 0 0 1 18.131 4.567l5.872-13.049a44.489 44.489 0 0 0-24.27-6.524c-12.258 0-25.307 7.048-25.307 20.354 0 12.526 10.568 16.806 23.488 20.217 5.605 1.571 11.221 2.481 11.221 6.396 0 3.914-6.654 5.476-10.707 5.476a31.561 31.561 0 0 1-20.345-6.92l-6.267 13.455c3.658 3.391 12.654 8.897 26.612 8.897 12.14 0 28.441-5.348 28.441-21.403 0-13.335-12.09-18.14-23.221-20.769zm-298.607-20.592h-17.478v61.43h17.478v-61.43zm0-20.246h-17.478v13.583h17.478v-13.583zm80.124 81.676h18.229v-33.374h30.912v-15.491h-30.912v-17.181h37.556v-15.63h-55.785v81.676z"/><path fill="#00DDB3" d="M218.547 198h-71.118C127.31 198 111 214.31 111 234.429v71.117c0 20.12 16.31 36.429 36.429 36.429h71.118c20.119 0 36.428-16.309 36.428-36.429v-71.117c0-20.119-16.309-36.429-36.428-36.429z"/><path fill="#fff" d="M220.424 230.247c-24.784 0-33.968 17.695-41.352 31.911l-4.824 9.095c-7.82 15.075-13.662 24.239-28.718 24.239a7.132 7.132 0 0 0-5.033 2.085 7.112 7.112 0 0 0-2.085 5.033 7.13 7.13 0 0 0 7.118 7.118c24.793 0 33.977-17.696 41.362-31.911l4.814-9.095c7.83-15.076 13.672-24.24 28.718-24.24a7.11 7.11 0 0 0 5.039-2.081 7.13 7.13 0 0 0 1.546-2.31 7.127 7.127 0 0 0 .542-2.726 7.123 7.123 0 0 0-7.127-7.118z"/></g><defs><clipPath id="a"><path fill="#fff" d="M111 198h738v144H111z"/></clipPath></defs></svg>